<?xml version="1.0" encoding="UTF-8" standalone="no"?>
<svg
        width="64"
        height="64"
        version="1.1"
        id="svg18398"
        sodipodi:docname="wemeet.svg"
        inkscape:version="1.2.1 (1:1.2.1+202210291243+9c6d41e410)"
        xmlns:inkscape="http://www.inkscape.org/namespaces/inkscape"
        xmlns:sodipodi="http://sodipodi.sourceforge.net/DTD/sodipodi-0.dtd"
        xmlns="http://www.w3.org/2000/svg"
        xmlns:svg="http://www.w3.org/2000/svg">
    <defs
            id="defs18402"/>
    <sodipodi:namedview
            id="namedview18400"
            pagecolor="#ffffff"
            bordercolor="#000000"
            borderopacity="0.25"
            inkscape:showpageshadow="2"
            inkscape:pageopacity="0.0"
            inkscape:pagecheckerboard="0"
            inkscape:deskcolor="#d1d1d1"
            showgrid="false"
            inkscape:zoom="16.046875"
            inkscape:cx="10.500487"
            inkscape:cy="32.373905"
            inkscape:window-width="2079"
            inkscape:window-height="1215"
            inkscape:window-x="127"
            inkscape:window-y="274"
            inkscape:window-maximized="0"
            inkscape:current-layer="svg18398"/>
    <circle
            cx="32"
            cy="32"
            r="27"
            fill="#5793f7"
            id="circle18390"
            style="fill:#2846d2;fill-opacity:1"/>
    <path
            style="opacity:0.2"
            d="m 24.865731,21 -7.167969,7.34375 -4.664062,4.734374 c -1.378266,1.416628 -1.378266,3.708374 0,5.125 l 4.664062,4.777344 7.167969,-7.324218 7.148435,7.34375 7.156252,-7.316406 7.128906,7.304688 4.667968,-4.777344 c 1.377533,-1.414304 1.377533,-3.702884 0,-5.117188 L 46.299324,28.355468 39.170418,21 32.018074,28.324218 Z"
            id="path6"/>
    <path
            fill-opacity="0.9"
            style="fill:#ffffff"
            d="M 17.697885,27.342432 13.0337,32.078164 c -1.378267,1.416626 -1.378267,3.708064 0,5.12469 l 4.664185,4.776674 7.169517,-7.32196 L 29.411652,27.3902 24.867402,20 Z"
            id="path8"/>
    <path
            style="fill:#8dafff"
            d="M 24.867,34.657568 33.269196,35.28536 32.023194,27.328786 24.867,20 Z"
            id="path10"/>
    <path
            style="fill:#ffffff"
            d="M 24.867,34.657568 32.01653,42 l 7.156192,-7.315136 7.12954,7.301488 4.664186,-4.776676 c 1.377532,-1.414304 1.377532,-3.70356 0,-5.117864 L 46.302262,27.35608 39.172722,20 Z"
            id="path12"/>
</svg>
