<svg xmlns="http://www.w3.org/2000/svg" width="24" height="24" version="1.1">
 <defs>
  <style id="current-color-scheme" type="text/css">
   .ColorScheme-Text { color:#dfdfdf; } .ColorScheme-Highlight { color:#4285f4; }
  </style>
 </defs>
  <g transform="matrix(1,0,0,1,4,4)">
   <path style="fill:currentColor" class="ColorScheme-Text" d="M 2,0 C 0.892,0 0,0.892 0,2 v 12 c 0,1.108 0.892,2 2,2 h 12 c 1.108,0 2,-0.892 2,-2 V 2 C 16,0.892 15.108,0 14,0 Z m 1,3 0.8730469,0.054687 C 6.222184,3.2005419 9.2377527,3.1426015 11.917969,3.0566406 12.21225,3.0472026 12.800781,3 12.800781,3 L 13,4.0507812 8.0800781,4 v 1.0722656 c 0,0 1.6003656,0.017699 2.4003909,-0.00195 0.623615,-0.015319 1.86914,-0.089844 1.86914,-0.089844 L 12.5,6 c 0,0 -0.955506,-0.042447 -1.433594,-0.050781 -0.995312,-0.017351 -2.9863279,0 -2.9863279,0 V 7 c 0,0 1.9600719,0.013988 2.8398439,0 0.524185,-0.00833 1.572266,-0.050781 1.572266,-0.050781 0,0 -0.04687,0.7952279 -0.05274,1.1933593 -0.0085,0.5761715 -0.01866,1.1537277 0.02539,1.7285157 0.05928,0.7734892 0.163332,1.5843062 0.320312,2.3066402 C 12.921936,12.807122 13.199219,13 13.199219,13 c 0,0 -1.055931,-0.0962 -1.242188,-0.488281 C 11.630148,11.873541 11.563854,10.557738 11.521484,9.3925781 11.501199,8.7423591 11.511196,8.0512734 11.416016,7.9277344 11.276234,7.7463064 8.0800781,7.8613281 8.0800781,7.8613281 v 1.0390625 c 0,0 0.9115381,0.0077 1.2675781,0 0.38748,-0.00833 1.1621098,-0.099609 1.1621098,-0.099609 0,1e-7 0.01486,0.9004583 0.02734,1.3476568 0.0157,0.562402 0.05733,1.689081 0.226563,2.242187 C 10.880274,12.771715 11.25,13 11.25,13 c 0,0 -1.055169,-0.07669 -1.3359375,-0.302734 C 9.6932355,12.519478 9.5111856,12.23657 9.4785156,11.742188 9.4410256,11.174898 9.4101562,9.9003906 9.4101562,9.9003906 H 8.0800781 c 0,0 -0.00516,1.2070534 0,1.8105474 0.00326,0.380901 0.019531,1.142578 0.019531,1.142578 L 7.0371094,13 c 0,0 0.035806,-0.848777 0.042969,-1.273438 0.010266,-0.608637 0,-1.8261714 0,-1.8261714 H 5.4492188 c 0,0 -0.05208,0.9987604 -0.1152344,1.2382814 C 5.2266365,11.543922 5.0355699,12.08765 4.78125,12.402344 4.5269303,12.717038 3.9140625,13 3.9140625,13 c 0,0 -0.3144618,-0.265135 -0.484375,-0.378906 -0.219746,-0.147139 -0.6894531,-0.390625 -0.6894531,-0.390625 0,0 0.9269081,-0.248508 1.2421875,-0.636719 C 4.2977011,11.205539 4.359019,10.384847 4.40625,9.9453125 4.4534811,9.5057785 4.3496094,8.9003906 4.3496094,8.9003906 H 7.0800781 V 7.8613281 c 0,0 -1.5873603,-0.059361 -2.3789062,-0.011719 C 4.3003186,7.8737364 3.5058594,8 3.5058594,8 c 0,0 0.073864,-0.6657961 0.09375,-1 0.03961,-0.6657041 0.050781,-2 0.050781,-2 0,0 0.5505292,0.072622 0.828125,0.085937 0.8660057,0.041538 2.6015625,-0.017578 2.6015625,-0.017578 V 4 H 3.1992188 Z M 7.0800781,5.9492188 4.6503906,6 4.5996094,7 h 2.4804687 z"/>
  </g>
</svg>
